<?xml version="1.0" encoding="UTF-8"?>
<svg width="1024px" height="1024px" viewBox="0 0 1024 1024" version="1.1" xmlns="http://www.w3.org/2000/svg" xmlns:xlink="http://www.w3.org/1999/xlink">
    <defs>
        <filter x="-10.9%" y="-33.1%" width="121.9%" height="166.3%" filterUnits="objectBoundingBox" id="filter-1">
            <feGaussianBlur stdDeviation="10" in="SourceGraphic"></feGaussianBlur>
        </filter>
        <linearGradient x1="50%" y1="0%" x2="50%" y2="100%" id="linearGradient-2">
            <stop stop-color="#FFB400" offset="0%"></stop>
            <stop stop-color="#FF9000" offset="100%"></stop>
        </linearGradient>
    </defs>
    <g id="holy-shit" stroke="none" stroke-width="1" fill="none" fill-rule="evenodd">
        <g transform="translate(96.000000, 146.000000)">
            <path d="M394.374754,72.2274879 C406.68453,58.5670172 420.108589,39.7618186 434.263869,15.752808 C442.988672,0.954519848 461.841385,-4.31455046 476.974424,3.81580333 C510.388523,21.7678113 533.893558,47.4948497 546.394711,80.0550232 C712.814409,101.203902 833,161.039358 833,224 C833,261.868371 789.522222,296.274608 718.657156,321.732878 C722.250976,325.794444 725.833073,330.281221 729.5221,335.316262 C742.15432,352.557597 750.305789,376.152126 751.453213,400.879916 C752.239668,417.828578 749.789235,434.828645 743.954715,451.257724 C745.059318,451.882749 746.156151,452.519382 747.24499,453.16751 C764.926679,463.692479 780.314528,477.138999 792.527714,492.811454 C812.189198,518.041866 823,548.203032 823,579.849867 C823,664.844786 746.170265,731.849867 653.404938,731.849867 L501.096566,731.849867 C499.755227,732.021271 498.387933,732.109633 497,732.109633 L180.595062,732.109633 C87.8297351,732.109633 11,665.104552 11,580.109633 C11,548.462797 21.8108025,518.301632 41.4722862,493.07122 C53.6854724,477.398764 69.0733213,463.952245 86.7550101,453.427275 C87.8438491,452.779147 88.9406818,452.142514 90.0452845,451.51749 C84.2107647,435.088411 81.7603317,418.088344 82.5467868,401.139682 C83.6942107,376.411891 91.8456805,352.817363 104.4779,335.576028 C108.144332,330.571826 111.70514,326.109192 115.27681,322.067321 C43.8599792,296.576335 0,262.034452 0,224 C0,148.106004 174.634057,76.7530182 394.374754,72.2274879 L394.374754,72.2274879 Z" id="shit__fill-and-external-border" stroke="#FFFFFF" stroke-width="50" fill="#FFFFFF" fill-rule="nonzero"></path>
            <path d="M417,526.5 C459.809219,526.5 501.463649,546.753989 541.686377,585.869669 C559.235064,602.935364 540.762687,631.791063 517.917941,622.998341 C484.11953,609.989659 450.519401,603.523476 417,603.523476 C383.480599,603.523476 349.88047,609.989659 316.082059,622.998341 C293.237313,631.791063 274.764936,602.935364 292.313623,585.869669 C332.536351,546.753989 374.190781,526.5 417,526.5 Z" id="shit__mouth" fill="#000000" fill-rule="nonzero"></path>
            <path d="M545.530488,394.719512 L581.219512,394.719512 C594.353113,394.719512 605,405.366399 605,418.5 C605,431.633601 594.353113,442.280488 581.219512,442.280488 L545.530488,442.280488 C537.66043,442.280488 531.280488,448.66043 531.280488,456.530488 L531.280488,492.219512 C531.280488,505.353113 520.633601,516 507.5,516 C494.366399,516 483.719512,505.353113 483.719512,492.219512 L483.719512,456.530488 C483.719512,448.66043 477.33957,442.280488 469.469512,442.280488 L433.780488,442.280488 C420.646887,442.280488 410,431.633601 410,418.5 C410,405.366399 420.646887,394.719512 433.780488,394.719512 L469.469512,394.719512 C477.33957,394.719512 483.719512,388.33957 483.719512,380.469512 L483.719512,344.780488 C483.719512,331.646887 494.366399,321 507.5,321 C520.633601,321 531.280488,331.646887 531.280488,344.780488 L531.280488,380.469512 C531.280488,388.33957 537.66043,394.719512 545.530488,394.719512 Z" id="shit__right-eye" fill="#000000" transform="translate(507.500000, 418.500000) rotate(45.000000) translate(-507.500000, -418.500000) "></path>
            <path d="M364.530488,394.719512 L400.219512,394.719512 C413.353113,394.719512 424,405.366399 424,418.5 C424,431.633601 413.353113,442.280488 400.219512,442.280488 L364.530488,442.280488 C356.66043,442.280488 350.280488,448.66043 350.280488,456.530488 L350.280488,492.219512 C350.280488,505.353113 339.633601,516 326.5,516 C313.366399,516 302.719512,505.353113 302.719512,492.219512 L302.719512,456.530488 C302.719512,448.66043 296.33957,442.280488 288.469512,442.280488 L252.780488,442.280488 C239.646887,442.280488 229,431.633601 229,418.5 C229,405.366399 239.646887,394.719512 252.780488,394.719512 L288.469512,394.719512 C296.33957,394.719512 302.719512,388.33957 302.719512,380.469512 L302.719512,344.780488 C302.719512,331.646887 313.366399,321 326.5,321 C339.633601,321 350.280488,331.646887 350.280488,344.780488 L350.280488,380.469512 C350.280488,388.33957 356.66043,394.719512 364.530488,394.719512 Z" id="shit__left-eye" fill="#000000" transform="translate(326.500000, 418.500000) rotate(45.000000) translate(-326.500000, -418.500000) "></path>
            <path d="M185.297802,280.052356 C180.68389,251.60001 184.907208,225.658757 198.795044,203.065275 C198.861906,202.956501 198.929419,202.848127 198.997578,202.740161 C218.761177,171.433925 250.053309,147.738843 292.164955,127.073988 C304.218857,121.158946 316.603544,115.74584 331.422104,109.74258 C336.477163,107.694686 358.167728,99.1291773 363.056013,97.1109237 C382.199036,89.2072364 406.861317,62.2307429 434.263869,15.752808 C442.988672,0.954519848 461.841385,-4.31455046 476.974424,3.81580333 C516.544272,25.0750401 542.217734,57.2379134 552.176592,98.7401722 C556.903808,118.440236 557.452158,137.673382 553.910209,156.158849 C583.222424,158.205236 608.534449,170.656973 628.365675,193.950505 C650.888361,220.405395 658.946424,250.218716 652.782764,280.801245 C659.989607,282.696516 666.433244,285.020613 672.159152,287.823546 C697.16128,300.06253 712.157021,311.615191 729.5221,335.316262 C742.15432,352.557597 750.305789,376.152126 751.453213,400.879916 C752.239668,417.828578 749.789235,434.828645 743.954715,451.257724 C745.059318,451.882749 746.156151,452.519382 747.24499,453.16751 C764.926679,463.692479 780.314528,477.138999 792.527714,492.811454 C812.189198,518.041866 823,548.203032 823,579.849867 C823,664.844786 746.170265,731.849867 653.404938,731.849867 L501.096566,731.849867 C499.755227,732.021271 498.387933,732.109633 497,732.109633 L180.595062,732.109633 C87.8297351,732.109633 11,665.104552 11,580.109633 C11,548.462797 21.8108025,518.301632 41.4722862,493.07122 C53.6854724,477.398764 69.0733213,463.952245 86.7550101,453.427275 C87.8438491,452.779147 88.9406818,452.142514 90.0452845,451.51749 C84.2107647,435.088411 81.7603317,418.088344 82.5467868,401.139682 C83.6942107,376.411891 91.8456805,352.817363 104.4779,335.576028 C121.842979,311.874956 136.83872,300.322295 161.840848,288.083312 C168.626589,284.761571 176.420343,282.112333 185.297802,280.052356 Z M255.519354,294.339603 C256.267239,296.100858 256.862795,297.94586 257.288597,299.859169 C258.12072,303.55558 258.270273,307.291517 257.803566,310.912443 C257.20175,315.657544 255.552131,320.102174 253.082085,323.989723 C250.618481,327.881357 247.301201,331.268337 243.265438,333.835588 C240.188982,335.80138 236.745775,337.258746 233.047339,338.081824 C231.12761,338.513986 229.19722,338.762043 227.277817,338.835284 C208.866291,339.992 196.153569,342.543308 189.979465,345.565641 C173.640952,353.563632 166.747359,358.87443 156.104131,373.40105 C151.003125,380.363259 147.048581,391.809734 146.477997,404.106231 C145.777103,419.210984 150.017755,434.393365 160.130021,448.803361 C172.565447,466.523861 164.183918,491.221013 143.53163,497.712462 C134.985339,500.398741 126.910899,504.004739 119.490333,508.421808 C108.560555,514.927724 99.2122386,523.096658 91.9541252,532.410563 C80.8781524,546.6237 75,563.023216 75,580.109633 C75,627.663053 121.37708,668.109633 180.595062,668.109633 L412.903434,668.109633 C414.244773,667.938229 415.612067,667.849867 417,667.849867 L653.404938,667.849867 C712.62292,667.849867 759,627.403288 759,579.849867 C759,562.76345 753.121848,546.363934 742.045875,532.150797 C734.787761,522.836892 725.439445,514.667958 714.509667,508.162042 C707.089101,503.744973 699.014661,500.138975 690.46837,497.452696 C669.816082,490.961248 661.434553,466.264095 673.869979,448.543595 C683.982245,434.1336 688.222897,418.951218 687.522003,403.846465 C686.951419,391.549968 682.996875,380.103494 677.895869,373.141285 C667.252641,358.614665 660.359048,353.303867 644.020535,345.305876 C637.767572,342.24494 624.807893,339.667137 606.013906,338.53188 C581.751193,337.066283 567.916518,310.150883 580.846256,289.568146 C594.634202,267.619235 593.976159,252.284275 579.634325,235.438521 C572.536636,227.101657 564.596068,222.441759 554.796658,220.661277 C543.485287,218.606082 529.030717,220.261399 511.356915,226.279689 C481.355352,236.495834 456.349504,201.560321 475.694334,176.45572 C490.979077,156.620063 495.443708,136.596179 489.943232,113.673654 C486.589512,99.697456 480.300099,87.8899191 470.685957,77.916345 C443.263575,118.285343 416.029951,144.479654 387.48018,156.267158 C382.03369,158.515881 360.068676,167.189769 355.452572,169.059834 C341.928087,174.538842 330.853593,179.379287 320.359096,184.529104 C288.006857,200.404863 265.47266,217.442527 253.225357,236.731689 C245.244148,249.856694 245.219325,268.260881 255.519354,294.339603 Z" id="Shit" fill="#000000" fill-rule="nonzero"></path>
            <path d="M559,100.742939 L559.000003,181.564439 C516.348647,176.731251 467.886809,174 416.5,174 C369.480959,174 324.910789,176.286682 284.999984,180.377951 L285,99.2604052 C326.335755,93.9360943 370.548864,91 416.5,91 C466.552996,91 514.543824,94.4836752 559.000003,100.742947 L559,100.742939 Z" id="halo__shadow" fill="#000000" opacity="0.150716146" filter="url(#filter-1)"></path>
            <path d="M185.297802,280.052356 C176.420343,282.112333 168.626589,284.761571 161.840848,288.083312 C142.117625,297.738178 128.621405,306.965944 115.27681,322.067321 C43.8599792,296.576335 0,262.034452 0,224 C0,145.575566 186.473402,72 416.5,72 C646.526598,72 833,145.575566 833,224 C833,261.868371 789.522222,296.274608 718.657156,321.732878 C705.334056,306.675736 691.849843,297.462488 672.159152,287.823546 C666.433244,285.020613 659.989607,282.696516 652.782764,280.801245 C653.808624,275.711182 654.440526,270.642428 654.677347,265.606919 C699.217648,253.91431 726,238.889281 726,222.5 C726,185.220779 587.43213,155 416.5,155 C245.56787,155 107,185.220779 107,222.5 C107,239.549613 135.983973,255.122825 183.792186,267.003862 C184.079628,271.290935 184.582521,275.64147 185.297802,280.052356 Z" id="halo" fill="url(#linearGradient-2)"></path>
        </g>
    </g>
</svg>